<mxfile host="Electron" modified="2024-09-20T14:33:11.721Z" agent="Mozilla/5.0 (Windows NT 10.0; Win64; x64) AppleWebKit/537.36 (KHTML, like Gecko) draw.io/24.6.4 Chrome/124.0.6367.207 Electron/30.0.6 Safari/537.36" etag="9BIS3Z4bVLAew02sFVIE" version="24.6.4" type="device">
  <diagram id="C5RBs43oDa-KdzZeNtuy" name="Page-1">
    <mxGraphModel dx="1896" dy="1866" grid="1" gridSize="10" guides="1" tooltips="1" connect="1" arrows="1" fold="1" page="1" pageScale="1" pageWidth="827" pageHeight="1169" math="0" shadow="0">
      <root>
        <mxCell id="WIyWlLk6GJQsqaUBKTNV-0" />
        <mxCell id="WIyWlLk6GJQsqaUBKTNV-1" parent="WIyWlLk6GJQsqaUBKTNV-0" />
        <mxCell id="99bXo6lnzLPpJGN_EY6i-11" value="" style="edgeStyle=orthogonalEdgeStyle;rounded=0;orthogonalLoop=1;jettySize=auto;html=1;" parent="WIyWlLk6GJQsqaUBKTNV-1" source="WIyWlLk6GJQsqaUBKTNV-3" target="99bXo6lnzLPpJGN_EY6i-0" edge="1">
          <mxGeometry relative="1" as="geometry" />
        </mxCell>
        <mxCell id="OL5cRLxY_VLQhdBJ9d5C-9" value="将ClientTeamSelect封装成MobaTeamRequestRPC" style="edgeLabel;html=1;align=center;verticalAlign=middle;resizable=0;points=[];" vertex="1" connectable="0" parent="99bXo6lnzLPpJGN_EY6i-11">
          <mxGeometry x="-0.1347" y="1" relative="1" as="geometry">
            <mxPoint as="offset" />
          </mxGeometry>
        </mxCell>
        <mxCell id="WIyWlLk6GJQsqaUBKTNV-3" value="Client World" style="rounded=1;whiteSpace=wrap;html=1;fontSize=12;glass=0;strokeWidth=1;shadow=0;" parent="WIyWlLk6GJQsqaUBKTNV-1" vertex="1">
          <mxGeometry x="160" y="5" width="120" height="40" as="geometry" />
        </mxCell>
        <mxCell id="99bXo6lnzLPpJGN_EY6i-7" value="" style="edgeStyle=orthogonalEdgeStyle;rounded=0;orthogonalLoop=1;jettySize=auto;html=1;" parent="WIyWlLk6GJQsqaUBKTNV-1" source="99bXo6lnzLPpJGN_EY6i-0" target="99bXo6lnzLPpJGN_EY6i-6" edge="1">
          <mxGeometry relative="1" as="geometry" />
        </mxCell>
        <mxCell id="OL5cRLxY_VLQhdBJ9d5C-8" value="传递MobaTeamRequestRPC" style="edgeLabel;html=1;align=center;verticalAlign=middle;resizable=0;points=[];" vertex="1" connectable="0" parent="99bXo6lnzLPpJGN_EY6i-7">
          <mxGeometry x="0.0008" y="1" relative="1" as="geometry">
            <mxPoint as="offset" />
          </mxGeometry>
        </mxCell>
        <mxCell id="99bXo6lnzLPpJGN_EY6i-0" value="创建数据包" style="rounded=0;whiteSpace=wrap;html=1;verticalAlign=middle;" parent="WIyWlLk6GJQsqaUBKTNV-1" vertex="1">
          <mxGeometry x="160" y="120" width="120" height="40" as="geometry" />
        </mxCell>
        <mxCell id="99bXo6lnzLPpJGN_EY6i-4" value="&lt;p style=&quot;line-height: 100%;&quot;&gt;&lt;/p&gt;&lt;h1 style=&quot;margin-top: 0px; line-height: 100%; margin-bottom: 5px;&quot;&gt;&lt;font style=&quot;font-size: 12px;&quot;&gt;数据包Entity&lt;/font&gt;&lt;/h1&gt;&lt;p style=&quot;line-height: 100%; font-size: 11px; margin-top: 4px; margin-bottom: 4px;&quot;&gt;&lt;font style=&quot;font-size: 10px;&quot;&gt;该Entity包含两个组件：&lt;/font&gt;&lt;/p&gt;&lt;p style=&quot;line-height: 100%; font-size: 11px; margin-top: 4px; margin-bottom: 4px; margin-right: 0px;&quot;&gt;&lt;font style=&quot;font-size: 10px;&quot;&gt;1. 继承`IRpcCommand`的数据组件&lt;/font&gt;&lt;/p&gt;&lt;p style=&quot;line-height: 100%; font-size: 11px; margin-top: 4px; margin-bottom: 4px;&quot;&gt;&lt;font style=&quot;font-size: 10px;&quot;&gt;2. NetCode的特殊组件`SendRpcCommandRequest`&lt;/font&gt;&lt;/p&gt;&lt;p&gt;&lt;/p&gt;" style="text;html=1;whiteSpace=wrap;overflow=hidden;rounded=0;spacing=0;verticalAlign=top;horizontal=1;spacingTop=-20;" parent="WIyWlLk6GJQsqaUBKTNV-1" vertex="1">
          <mxGeometry x="300" y="105" width="260" height="70" as="geometry" />
        </mxCell>
        <mxCell id="99bXo6lnzLPpJGN_EY6i-15" value="" style="edgeStyle=orthogonalEdgeStyle;rounded=0;orthogonalLoop=1;jettySize=auto;html=1;" parent="WIyWlLk6GJQsqaUBKTNV-1" source="99bXo6lnzLPpJGN_EY6i-6" target="99bXo6lnzLPpJGN_EY6i-14" edge="1">
          <mxGeometry relative="1" as="geometry" />
        </mxCell>
        <mxCell id="OL5cRLxY_VLQhdBJ9d5C-10" value="将获取到的MobaTeamRequestRPC保存在Ghost对应的实例化Entity上" style="edgeLabel;html=1;align=center;verticalAlign=middle;resizable=0;points=[];" vertex="1" connectable="0" parent="99bXo6lnzLPpJGN_EY6i-15">
          <mxGeometry x="-0.0375" relative="1" as="geometry">
            <mxPoint as="offset" />
          </mxGeometry>
        </mxCell>
        <mxCell id="99bXo6lnzLPpJGN_EY6i-6" value="系统自动处理数据包" style="rounded=0;whiteSpace=wrap;html=1;verticalAlign=middle;" parent="WIyWlLk6GJQsqaUBKTNV-1" vertex="1">
          <mxGeometry x="160" y="250" width="120" height="40" as="geometry" />
        </mxCell>
        <mxCell id="99bXo6lnzLPpJGN_EY6i-10" value="&lt;p style=&quot;line-height: 100%;&quot;&gt;&lt;/p&gt;&lt;h1 style=&quot;margin-top: 0px; line-height: 100%; margin-bottom: 5px;&quot;&gt;&lt;font style=&quot;font-size: 12px;&quot;&gt;系统处理&lt;/font&gt;&lt;/h1&gt;&lt;p style=&quot;line-height: 100%; font-size: 11px; margin-top: 4px; margin-bottom: 4px;&quot;&gt;&lt;font style=&quot;font-size: 10px;&quot;&gt;可以理解成系统将Client中创建的Entity传递到Server上了&lt;/font&gt;&lt;/p&gt;&lt;p style=&quot;line-height: 100%; margin-top: 0px; margin-bottom: 0px;&quot;&gt;&lt;span style=&quot;font-size: 10px;&quot;&gt;但实际上两个的Hash不一样，&lt;/span&gt;&lt;span style=&quot;font-size: 10px; background-color: initial;&quot;&gt;并不是同一个物体&lt;/span&gt;&lt;br&gt;&lt;/p&gt;&lt;p style=&quot;line-height: 100%; font-size: 11px; margin-top: 0px; margin-bottom: 0px;&quot;&gt;&lt;font style=&quot;font-size: 10px;&quot;&gt;&lt;br&gt;&lt;/font&gt;&lt;/p&gt;&lt;p style=&quot;line-height: 100%; font-size: 11px; margin-top: 0px; margin-bottom: 0px;&quot;&gt;&lt;font style=&quot;font-size: 10px;&quot;&gt;传递过来的Entity除了`SendRpcCommandRequest`变成了&lt;/font&gt;&lt;/p&gt;&lt;p style=&quot;line-height: 100%; font-size: 11px; margin-top: 4px; margin-bottom: 4px;&quot;&gt;&lt;font style=&quot;font-size: 10px;&quot;&gt;`ReceiveRpcCommandRequest`外，其他组件都是一样的&lt;/font&gt;&lt;/p&gt;&lt;p&gt;&lt;/p&gt;" style="text;html=1;whiteSpace=wrap;overflow=hidden;rounded=0;spacing=0;verticalAlign=top;horizontal=1;spacingTop=-20;" parent="WIyWlLk6GJQsqaUBKTNV-1" vertex="1">
          <mxGeometry x="300" y="217.5" width="260" height="105" as="geometry" />
        </mxCell>
        <mxCell id="99bXo6lnzLPpJGN_EY6i-14" value="Server World处理数据" style="rounded=1;whiteSpace=wrap;html=1;fontSize=12;glass=0;strokeWidth=1;shadow=0;" parent="WIyWlLk6GJQsqaUBKTNV-1" vertex="1">
          <mxGeometry x="160" y="380" width="120" height="40" as="geometry" />
        </mxCell>
        <mxCell id="OL5cRLxY_VLQhdBJ9d5C-2" value="" style="edgeStyle=orthogonalEdgeStyle;rounded=0;orthogonalLoop=1;jettySize=auto;html=1;" edge="1" parent="WIyWlLk6GJQsqaUBKTNV-1" source="OL5cRLxY_VLQhdBJ9d5C-0" target="WIyWlLk6GJQsqaUBKTNV-3">
          <mxGeometry relative="1" as="geometry" />
        </mxCell>
        <mxCell id="OL5cRLxY_VLQhdBJ9d5C-5" value="传递ClientTeamSelect" style="edgeLabel;html=1;align=center;verticalAlign=middle;resizable=0;points=[];" vertex="1" connectable="0" parent="OL5cRLxY_VLQhdBJ9d5C-2">
          <mxGeometry x="-0.0983" relative="1" as="geometry">
            <mxPoint as="offset" />
          </mxGeometry>
        </mxCell>
        <mxCell id="OL5cRLxY_VLQhdBJ9d5C-0" value="GameObject World" style="rounded=1;whiteSpace=wrap;html=1;fontSize=12;glass=0;strokeWidth=1;shadow=0;" vertex="1" parent="WIyWlLk6GJQsqaUBKTNV-1">
          <mxGeometry x="160" y="-115" width="120" height="40" as="geometry" />
        </mxCell>
        <mxCell id="OL5cRLxY_VLQhdBJ9d5C-3" value="&lt;p style=&quot;line-height: 100%;&quot;&gt;&lt;/p&gt;&lt;h1 style=&quot;margin-top: 0px; line-height: 100%; margin-bottom: 5px;&quot;&gt;&lt;font style=&quot;font-size: 12px;&quot;&gt;用户操作&lt;/font&gt;&lt;/h1&gt;&lt;p style=&quot;line-height: 100%; font-size: 11px; margin: 4px 0px;&quot;&gt;1. 用户做出操作选择，选择队伍&lt;/p&gt;&lt;p style=&quot;line-height: 100%; font-size: 11px; margin-top: 4px; margin-bottom: 4px;&quot;&gt;2. 创建Client World，将在GameObject World中选择的队伍信息以`ClientTeamSelect`组件的形式传递给Client World&lt;/p&gt;&lt;p&gt;&lt;/p&gt;" style="text;html=1;whiteSpace=wrap;overflow=hidden;rounded=0;spacing=0;verticalAlign=top;horizontal=1;spacingTop=-20;" vertex="1" parent="WIyWlLk6GJQsqaUBKTNV-1">
          <mxGeometry x="300" y="-152.5" width="260" height="115" as="geometry" />
        </mxCell>
        <mxCell id="OL5cRLxY_VLQhdBJ9d5C-11" value="保存的是ClientTeamSelect" style="text;html=1;align=center;verticalAlign=middle;resizable=0;points=[];autosize=1;strokeColor=none;fillColor=none;" vertex="1" parent="WIyWlLk6GJQsqaUBKTNV-1">
          <mxGeometry x="-60" y="10" width="160" height="30" as="geometry" />
        </mxCell>
        <mxCell id="OL5cRLxY_VLQhdBJ9d5C-13" value="通过Toggle获取到用户的选择" style="text;html=1;align=center;verticalAlign=middle;resizable=0;points=[];autosize=1;strokeColor=none;fillColor=none;" vertex="1" parent="WIyWlLk6GJQsqaUBKTNV-1">
          <mxGeometry x="-70" y="-110" width="180" height="30" as="geometry" />
        </mxCell>
        <mxCell id="OL5cRLxY_VLQhdBJ9d5C-14" value="&lt;span style=&quot;font-size: 11px; background-color: rgb(255, 255, 255);&quot;&gt;MobaTeamRequestRPC中转&lt;/span&gt;" style="text;html=1;align=center;verticalAlign=middle;resizable=0;points=[];autosize=1;strokeColor=none;fillColor=none;" vertex="1" parent="WIyWlLk6GJQsqaUBKTNV-1">
          <mxGeometry x="-60" y="255" width="160" height="30" as="geometry" />
        </mxCell>
        <mxCell id="OL5cRLxY_VLQhdBJ9d5C-15" value="&lt;span style=&quot;font-size: 11px; background-color: rgb(255, 255, 255);&quot;&gt;保存的是MobaTeam&lt;/span&gt;" style="text;html=1;align=center;verticalAlign=middle;resizable=0;points=[];autosize=1;strokeColor=none;fillColor=none;" vertex="1" parent="WIyWlLk6GJQsqaUBKTNV-1">
          <mxGeometry x="-40" y="385" width="120" height="30" as="geometry" />
        </mxCell>
      </root>
    </mxGraphModel>
  </diagram>
</mxfile>
